<svg xmlns="http://www.w3.org/2000/svg" width="89" height="89" viewBox="0 0 89 89">
  <g id="Group_469" data-name="Group 469" transform="translate(-1691 -1824)">
    <rect id="Rectangle_158" data-name="Rectangle 158" width="89" height="89" rx="3" transform="translate(1691 1824)" fill="#f3f3f3"/>
    <g id="Group_465" data-name="Group 465" transform="translate(1697 1835)">
      <g id="Group_462" data-name="Group 462" transform="translate(34.578 12.797)">
        <path id="Path_628" data-name="Path 628" d="M137.221,2008.018H134.6v-10.526a9.6,9.6,0,0,1-3.23.433v-2.255q3.239,0,3.7-2.491h2.15Z" transform="translate(-131.369 -1993.178)" fill="#002347"/>
      </g>
      <g id="Group_463" data-name="Group 463" transform="translate(8.072 25.313)">
        <path id="Path_629" data-name="Path 629" d="M99.012,2027.922h-9.8a5.544,5.544,0,0,1,.829-3.082,8.331,8.331,0,0,1,1.109-1.31q.722-.719,1.783-1.6.944-.777,1.59-1.368a8.731,8.731,0,0,0,1.041-1.108,3.574,3.574,0,0,0,.564-1.019,3.44,3.44,0,0,0,.169-1.1,1.822,1.822,0,0,0-2.006-2,1.882,1.882,0,0,0-.771.162,1.824,1.824,0,0,0-.646.488,2.762,2.762,0,0,0-.467.812,3.77,3.77,0,0,0-.226,1.128H89.5a6.352,6.352,0,0,1,.468-2,4.8,4.8,0,0,1,1.007-1.526,4.366,4.366,0,0,1,1.48-.975,5,5,0,0,1,1.885-.344,5.525,5.525,0,0,1,1.976.33,4.16,4.16,0,0,1,1.456.906,3.869,3.869,0,0,1,.9,1.359,4.593,4.593,0,0,1,.308,1.7,5.229,5.229,0,0,1-.221,1.551,4.962,4.962,0,0,1-.665,1.354,10.956,10.956,0,0,1-1.248,1.414q-.835.821-2.039,1.856-.714.62-1.229,1.1a9.676,9.676,0,0,0-.767.773h6.209Z" transform="translate(-89.217 -2013.082)" fill="#002347"/>
      </g>
      <g id="Group_464" data-name="Group 464" transform="translate(59.977 25.313)">
        <path id="Path_630" data-name="Path 630" d="M180.814,2017.08a3.7,3.7,0,0,1-.328,1.521,3.329,3.329,0,0,1-1,1.265,3.524,3.524,0,0,1,1.5,1.453,4.339,4.339,0,0,1,.516,2.122,4.744,4.744,0,0,1-.377,1.91,4.5,4.5,0,0,1-1.036,1.492,4.694,4.694,0,0,1-1.552.969,5.292,5.292,0,0,1-1.924.345,5.189,5.189,0,0,1-1.908-.34,4.457,4.457,0,0,1-1.5-.96,4.545,4.545,0,0,1-1.007-1.492,5.714,5.714,0,0,1-.429-1.945h2.709a3.227,3.227,0,0,0,.14.956,2.344,2.344,0,0,0,.414.792,1.983,1.983,0,0,0,.67.537,2.024,2.024,0,0,0,.916.2,2.211,2.211,0,0,0,.911-.182,2.056,2.056,0,0,0,.7-.5,2.216,2.216,0,0,0,.443-.769,3,3,0,0,0,.155-.98,2.169,2.169,0,0,0-.627-1.679,2.649,2.649,0,0,0-1.851-.576h-1.109v-2.245h.839q2.072,0,2.073-1.92a1.752,1.752,0,0,0-.429-1.275,1.643,1.643,0,0,0-1.229-.438q-1.658,0-1.89,2.177h-2.68a5.929,5.929,0,0,1,.506-1.911,4.547,4.547,0,0,1,.988-1.388,4,4,0,0,1,1.374-.847,4.771,4.771,0,0,1,1.663-.286,5.183,5.183,0,0,1,1.8.3,4.065,4.065,0,0,1,1.379.827,3.622,3.622,0,0,1,.882,1.265A4.117,4.117,0,0,1,180.814,2017.08Z" transform="translate(-171.761 -2013.082)" fill="#002347"/>
      </g>
      <rect id="Rectangle_152" data-name="Rectangle 152" width="25.938" height="30.729" transform="translate(25.938 35.764)" fill="none" stroke="#002347" stroke-miterlimit="10" stroke-width="3"/>
      <rect id="Rectangle_153" data-name="Rectangle 153" width="25.938" height="17.543" transform="translate(51.876 48.95)" fill="none" stroke="#344154" stroke-miterlimit="10" stroke-width="3"/>
      <rect id="Rectangle_154" data-name="Rectangle 154" width="25.938" height="17.543" transform="translate(51.876 48.95)" fill="none" stroke="#002347" stroke-miterlimit="10" stroke-width="3"/>
      <path id="Path_631" data-name="Path 631" d="M0,0H25.938V17.543H0Z" transform="translate(0 48.95)" fill="none" stroke="#002347" stroke-width="3"/>
      <line id="Line_310" data-name="Line 310" y1="5.504" transform="translate(38.907)" fill="none" stroke="#002347" stroke-miterlimit="10" stroke-width="3"/>
      <path id="Path_632" data-name="Path 632" d="M2.192,5.028,0,0" transform="translate(31.735 1.557)" fill="none" stroke="#002347" stroke-width="3"/>
      <path id="Path_633" data-name="Path 633" d="M4,3.683,0,0" transform="translate(25.803 5.959)" fill="none" stroke="#002347" stroke-width="3"/>
      <line id="Line_313" data-name="Line 313" y1="3.683" x2="4.004" transform="translate(48.007 5.959)" fill="none" stroke="#002347" stroke-miterlimit="10" stroke-width="3"/>
      <line id="Line_314" data-name="Line 314" y1="5.028" x2="2.192" transform="translate(43.888 1.557)" fill="none" stroke="#002347" stroke-miterlimit="10" stroke-width="3"/>
      <rect id="Rectangle_156" data-name="Rectangle 156" width="22.917" height="18.263" transform="translate(48.039 39.67) rotate(90)" fill="#0074b8"/>
    </g>
  </g>
</svg>
