<svg xmlns="http://www.w3.org/2000/svg" width="25.771" height="26.365" viewBox="0 0 47.771 48.365">
  <g id="Group_551" data-name="Group 551" transform="translate(-1732.229 -989.636)">
    <g id="Rectangle_201" data-name="Rectangle 201" transform="translate(1732.229 997.485)" fill="none" stroke="#0074b8" stroke-width="5">
      <rect width="40.516" height="40.516" rx="6" stroke="none"/>
      <rect x="2.5" y="2.5" width="35.516" height="35.516" rx="3.5" fill="none"/>
    </g>
    <g id="image-removebg-preview_9_" data-name="image-removebg-preview (9)" transform="translate(1739.192 989.636)">
      <path id="Path_657" data-name="Path 657" d="M92.29-255.482c-.747.4-3.736,3.9-19.325,22.758-4.079,4.947-4.564,5.472-4.846,5.19-.162-.182-1.838-2.1-3.736-4.3-3.958-4.6-4.443-4.968-6.5-4.846a3.95,3.95,0,0,0-3.433,2.161,4.731,4.731,0,0,0-.1,3.877c.525,1.01,11.066,13.247,12.015,13.933a4.157,4.157,0,0,0,4.907-.141c.586-.424,4.887-6.987,18.5-28.25,2.282-3.554,4.342-6.846,4.584-7.31.586-1.191.586-2.746-.02-3.17C93.744-256.007,93.219-255.987,92.29-255.482Z" transform="translate(-53.979 255.882)" fill="#da559a"/>
    </g>
  </g>
</svg>
