<svg id="check_1_" data-name="check (1)" xmlns="http://www.w3.org/2000/svg" width="120.145" height="120.145" viewBox="0 0 189.145 189.145">
  <path id="Path_700" data-name="Path 700" d="M94.572,189.145a94.572,94.572,0,1,1,94.572-94.572A94.677,94.677,0,0,1,94.572,189.145Zm0-177.323a82.751,82.751,0,1,0,82.751,82.751A82.842,82.842,0,0,0,94.572,11.822Zm0,0" fill="#4fb55a"/>
  <path id="Path_701" data-name="Path 701" d="M178.194,233.706a5.865,5.865,0,0,1-4.178-1.733L148.4,206.36A5.913,5.913,0,1,1,156.766,198L178.2,219.434l47.051-47.049a5.912,5.912,0,0,1,8.361,8.361l-51.227,51.227a5.922,5.922,0,0,1-4.192,1.733Zm0,0" transform="translate(-92.488 -107.61)" fill="#4fb55a"/>
</svg>
