<svg xmlns="http://www.w3.org/2000/svg" xmlns:xlink="http://www.w3.org/1999/xlink" width="80" height="80" viewBox="0 0 133 133">
  <defs>
    <linearGradient id="linear-gradient" x1="0.5" x2="0.5" y2="1" gradientUnits="objectBoundingBox">
      <stop offset="0" stop-color="#3e468f"/>
      <stop offset="1" stop-color="#002347"/>
    </linearGradient>
  </defs>
  <g id="Group_424" data-name="Group 424" transform="translate(-893.5 -5849)">
    <g id="Path_522" data-name="Path 522" transform="translate(893.5 5849)" fill="#fff">
      <path d="M 66.5 132 C 57.65710830688477 132 49.07927322387695 130.2683258056641 41.00476455688477 126.8530883789062 C 37.12381744384766 125.2116012573242 33.38059997558594 123.1798400878906 29.87903594970703 120.8142166137695 C 26.41047286987305 118.4709091186523 23.14876365661621 115.7797470092773 20.18450927734375 112.8154907226562 C 17.22025489807129 109.8512344360352 14.52909088134766 106.5895309448242 12.18578147888184 103.120964050293 C 9.820163726806641 99.61940002441406 7.788400173187256 95.87618255615234 6.146909236907959 91.9952392578125 C 2.731672763824463 83.92073059082031 1 75.34288787841797 1 66.5 C 1 57.65710830688477 2.731672763824463 49.07927322387695 6.146909236907959 41.00476455688477 C 7.788400173187256 37.12381744384766 9.820163726806641 33.38059997558594 12.18578147888184 29.87903594970703 C 14.52909088134766 26.41047286987305 17.22025489807129 23.14876365661621 20.18450927734375 20.18450927734375 C 23.14876365661621 17.22025489807129 26.41047286987305 14.52909088134766 29.87903594970703 12.18578147888184 C 33.38059997558594 9.820163726806641 37.12381744384766 7.788400173187256 41.00476455688477 6.146909236907959 C 49.07927322387695 2.731672763824463 57.65710830688477 1 66.5 1 C 75.34288787841797 1 83.92073059082031 2.731672763824463 91.9952392578125 6.146909236907959 C 95.87618255615234 7.788400173187256 99.61940002441406 9.820163726806641 103.120964050293 12.18578147888184 C 106.5895309448242 14.52909088134766 109.8512344360352 17.22025489807129 112.8154907226562 20.18450927734375 C 115.7797470092773 23.14876365661621 118.4709091186523 26.41047286987305 120.8142166137695 29.87903594970703 C 123.1798400878906 33.38059997558594 125.2116012573242 37.12381744384766 126.8530883789062 41.00476455688477 C 130.2683258056641 49.07927322387695 132 57.65710830688477 132 66.5 C 132 75.34288787841797 130.2683258056641 83.92073059082031 126.8530883789062 91.9952392578125 C 125.2116012573242 95.87618255615234 123.1798400878906 99.61940002441406 120.8142166137695 103.120964050293 C 118.4709091186523 106.5895309448242 115.7797470092773 109.8512344360352 112.8154907226562 112.8154907226562 C 109.8512344360352 115.7797470092773 106.5895309448242 118.4709091186523 103.120964050293 120.8142166137695 C 99.61940002441406 123.1798400878906 95.87618255615234 125.2116012573242 91.9952392578125 126.8530883789062 C 83.92073059082031 130.2683258056641 75.34288787841797 132 66.5 132 Z" stroke="none"/>
      <path d="M 66.5 2 C 57.79167175292969 2 49.34490966796875 3.705093383789062 41.39430999755859 7.067909240722656 C 37.57285308837891 8.684257507324219 33.88689422607422 10.68494415283203 30.43883514404297 13.01439666748047 C 27.02301788330078 15.32209014892578 23.81087493896484 17.97236633300781 20.89161682128906 20.89161682128906 C 17.97236633300781 23.81087493896484 15.32209014892578 27.02301788330078 13.01439666748047 30.43883514404297 C 10.68494415283203 33.88689422607422 8.684257507324219 37.57285308837891 7.067909240722656 41.39430999755859 C 3.705093383789062 49.34490966796875 2 57.79167175292969 2 66.5 C 2 75.20832824707031 3.705093383789062 83.65509033203125 7.067909240722656 91.60569000244141 C 8.684257507324219 95.42714691162109 10.68494415283203 99.11311340332031 13.01439666748047 102.561164855957 C 15.32209014892578 105.9769821166992 17.97236633300781 109.1891250610352 20.89161682128906 112.1083831787109 C 23.81087493896484 115.0276336669922 27.02301788330078 117.6779098510742 30.43883514404297 119.9856033325195 C 33.88689422607422 122.315055847168 37.57285308837891 124.3157424926758 41.39430999755859 125.9320907592773 C 49.34490966796875 129.2949066162109 57.79167175292969 131 66.5 131 C 75.20832824707031 131 83.65509033203125 129.2949066162109 91.60569000244141 125.9320907592773 C 95.42714691162109 124.3157424926758 99.11311340332031 122.315055847168 102.561164855957 119.9856033325195 C 105.9769821166992 117.6779098510742 109.1891250610352 115.0276336669922 112.1083831787109 112.1083831787109 C 115.0276336669922 109.1891250610352 117.6779098510742 105.9769821166992 119.9856033325195 102.561164855957 C 122.315055847168 99.11311340332031 124.3157424926758 95.42714691162109 125.9320907592773 91.60569000244141 C 129.2949066162109 83.65509033203125 131 75.20832824707031 131 66.5 C 131 57.79167175292969 129.2949066162109 49.34490966796875 125.9320907592773 41.39430999755859 C 124.3157424926758 37.57285308837891 122.315055847168 33.88689422607422 119.9856033325195 30.43883514404297 C 117.6779098510742 27.02301788330078 115.0276336669922 23.81087493896484 112.1083831787109 20.89161682128906 C 109.1891250610352 17.97236633300781 105.9769821166992 15.32209014892578 102.561164855957 13.01439666748047 C 99.11311340332031 10.68494415283203 95.42714691162109 8.684257507324219 91.60569000244141 7.067909240722656 C 83.65509033203125 3.705093383789062 75.20832824707031 2 66.5 2 M 66.5 0 C 103.2269287109375 0 133 29.7730712890625 133 66.5 C 133 103.2269287109375 103.2269287109375 133 66.5 133 C 29.7730712890625 133 0 103.2269287109375 0 66.5 C 0 29.7730712890625 29.7730712890625 0 66.5 0 Z" stroke="none" fill="#3e468f"/>
    </g>
    <g id="image-removebg-preview_9_" data-name="image-removebg-preview (9)" transform="translate(910.5 5889.237) rotate(-17)">
      <path id="Path_523" data-name="Path 523" d="M81.709-268.126c3.137,1.618,11.657,11.327,14.53,16.545,1.42,2.576,1.42,3.368.165,8.322C90.79-221.167,65.825-196.2,43.732-190.587c-4.953,1.255-5.746,1.255-8.322-.165-5.482-3.005-15.389-11.855-16.743-14.926-1.255-2.873-.066-4.788,5.251-8.322,8.091-5.416,13.9-8.388,16.413-8.421,1.915-.033,2.642.462,5.713,4.029,2.708,3.1,2.477,3.1,7,.892a36.277,36.277,0,0,0,16.743-17.04c1.849-3.9,1.882-3.765-1.189-6.406-3.566-3.1-4.062-3.8-4.029-5.779,0-1.288.429-2.444,2.047-5.68,2.213-4.425,7.959-13.44,9.511-14.86C77.977-268.951,79.628-269.215,81.709-268.126Zm-4.656,8.454c-3.567,5.35-7.1,11.756-7.034,12.681a19.863,19.863,0,0,0,3.038,3.1c4.062,3.567,4.194,3.8,3.434,6.638-1.684,6.539-7.265,14.7-13.242,19.451-4.887,3.864-11.195,7.1-14.86,7.6-1.387.2-1.552.132-3.071-1.288-.859-.826-2.345-2.411-3.236-3.5A8.387,8.387,0,0,0,40-217.006c-1.387,0-16.247,8.817-16.247,9.676,0,.826,7.793,7.727,12.351,10.964l2.279,1.618,3.071-.727c20.937-4.755,45.7-29.655,50.2-50.493l.561-2.675-1.585-2.279c-3.236-4.524-10.138-12.318-10.964-12.318A21.119,21.119,0,0,0,77.053-259.672Z" transform="translate(-18.21 268.779)" fill="url(#linear-gradient)"/>
      <path id="Path_524" data-name="Path 524" d="M174.2-260.174a2.467,2.467,0,0,1,.066,3.6c-.627.627-1.222.793-3.7.958a29.032,29.032,0,0,0-27.145,27.145c-.165,2.477-.33,3.071-.958,3.7a2.467,2.467,0,0,1-3.6-.066c-.991-.958-1.09-2.741-.33-7.265a34.323,34.323,0,0,1,23.777-27.343A36.6,36.6,0,0,1,171.759-261,2.736,2.736,0,0,1,174.2-260.174Z" transform="translate(-135.47 263.569)" fill="url(#linear-gradient)"/>
      <path id="Path_525" data-name="Path 525" d="M160.921-220.186c1.816,1.783.5,4.458-2.213,4.458-7.893,0-15.455,7.562-15.455,15.455,0,2.708-2.675,4.029-4.458,2.213-.991-.958-1.09-2.708-.33-6.274a21.528,21.528,0,0,1,16.181-16.181C158.214-221.276,159.964-221.177,160.921-220.186Z" transform="translate(-122.19 236.79)" fill="url(#linear-gradient)"/>
    </g>
  </g>
</svg>
