<svg id="project_1_" data-name="project (1)" xmlns="http://www.w3.org/2000/svg" width="19.023" height="19.024" viewBox="0 0 26.023 26.024">
  <path id="Path_563" data-name="Path 563" d="M151.762,91.525h7.675a.762.762,0,1,0,0-1.525h-7.675a.762.762,0,0,0,0,1.525Zm0,0" transform="translate(-143.325 -85.425)" fill="#0074b8"/>
  <path id="Path_564" data-name="Path 564" d="M22.12,2.195,19.925,4.39V.762A.762.762,0,0,0,19.163,0H5.337A.766.766,0,0,0,4.8.223L.224,4.8A.766.766,0,0,0,0,5.337V22.212a3.816,3.816,0,0,0,3.812,3.812h15.35a3.816,3.816,0,0,0,3.812-3.812V20.687a.762.762,0,0,0-.762-.762H19.925V10.859L25.354,5.43A2.287,2.287,0,0,0,22.12,2.195ZM4.575,2.6V4.575H2.6ZM6.1,20.687v1.525a2.287,2.287,0,0,1-4.575,0V6.1H5.337A.762.762,0,0,0,6.1,5.337V1.525H18.4v4.39l-1.71,1.71H3.812a.762.762,0,1,0,0,1.525H15.165l-1.525,1.525H3.812a.762.762,0,0,0,0,1.525h8.3l-.817.817a.762.762,0,0,0-.184.3l-.137.41H3.812a.762.762,0,1,0,0,1.525H10.47l-.376,1.129-.4.4H3.812a.762.762,0,0,0,0,1.525h6.1a.8.8,0,0,0,.645-.223l.619-.619,3.064-1.021a.764.764,0,0,0,.3-.184L18.4,12.384v7.541H6.862a.762.762,0,0,0-.762.762Zm8.265-6.424-.782.782-1.617.539.539-1.617.782-.782ZM21.45,21.45v.762A2.29,2.29,0,0,1,19.163,24.5H6.86a3.794,3.794,0,0,0,.764-2.287V21.45ZM22.659,5.969l-7.216,7.216-1.078-1.078L21.58,4.891Zm1.618-1.618-.539.539L22.659,3.813l.539-.539a.762.762,0,0,1,1.078,1.078Zm0,0" transform="translate(0 0)" fill="#0074b8"/>
</svg>
