<svg xmlns="http://www.w3.org/2000/svg" width="218.58" height="138.671" viewBox="0 0 298.58 218.671">
  <g id="Group_417" data-name="Group 417" transform="translate(-250 -1525)">
    <g id="Group_234" class="ChangeColor" data-name="Group 234" transform="translate(-559 104.64)">
      <g id="Group_232" data-name="Group 232" transform="translate(0 6.36)">
        <g id="Group_212" data-name="Group 212" transform="translate(1004.07 1504.172)">
          <path id="Path_434" data-name="Path 434" d="M226.992,132.5h75.841a14.214,14.214,0,0,1,14.192,14.192h0a14.214,14.214,0,0,1-14.192,14.192H226.992A14.214,14.214,0,0,1,212.8,146.692h0A14.165,14.165,0,0,1,226.992,132.5Z" transform="translate(-214.8 -145.5)" fill="#0074b8"/>
        </g>
        <g id="Group_219" data-name="Group 219" transform="translate(969.776 1447.588)">
          <path id="Path_434-2" data-name="Path 434" d="M226.992,132.5h75.841a14.214,14.214,0,0,1,14.192,14.192h0a14.214,14.214,0,0,1-14.192,14.192H226.992A14.214,14.214,0,0,1,212.8,146.692h0A14.165,14.165,0,0,1,226.992,132.5Z" transform="translate(-212.8 -132.5)" fill="#0074b8"/>
        </g>
        <g id="Group_214" data-name="Group 214" transform="translate(825.938 1489.141)">
          <path id="Path_437" data-name="Path 437" d="M116.019,107.062H27.131A15.011,15.011,0,0,1,12.1,92.031h0A15.011,15.011,0,0,1,27.131,77h88.888A15.011,15.011,0,0,1,131.05,92.031h0A15.011,15.011,0,0,1,116.019,107.062Z" transform="translate(-12.1 -77)" fill="#0074b8"/>
        </g>
        <g id="Group_215" data-name="Group 215" transform="translate(809 1550.157)">
          <path id="Path_438" data-name="Path 438" d="M150.156,209.288H21.745C9.69,209.288,0,201.252,0,191.394H0C0,181.537,9.69,173.5,21.745,173.5H150.156c11.979,0,21.745,7.974,21.745,17.894h0C171.9,201.252,162.135,209.288,150.156,209.288Z" transform="translate(0 -173.5)" fill="#0074b8"/>
        </g>
        <g id="Group_216" data-name="Group 216" transform="translate(1012.74 1542.455)">
          <path id="Path_439" data-name="Path 439" d="M266.261,63.658H195.379A11.951,11.951,0,0,1,183.4,51.679h0A11.951,11.951,0,0,1,195.379,39.7h70.882A11.951,11.951,0,0,1,278.24,51.679h0A11.9,11.9,0,0,1,266.261,63.658Z" transform="translate(-183.4 -39.7)" fill="#0074b8"/>
        </g>
        <g id="Group_221" data-name="Group 221" transform="translate(969.776 1589.948)">
          <path id="Path_439-2" data-name="Path 439" d="M255.273,58.752H193.791c-5.758,0-10.391-4.247-10.391-9.526h0c0-5.279,4.633-9.526,10.391-9.526h61.483c5.758,0,10.391,4.247,10.391,9.526h0C265.73,54.5,261.031,58.752,255.273,58.752Z" transform="translate(-166.4 -44.7)" fill="#0074b8"/>
        </g>
        <g id="Group_217" data-name="Group 217" transform="translate(867.325 1430)">
          <path id="Path_440" data-name="Path 440" d="M153.693,26.445a31.877,31.877,0,0,1,4.716.305c-.674-4.959-5.306-8.851-11.033-8.851H87.917C81.769,17.9,76.8,22.4,76.8,27.971s4.969,10.071,11.117,10.071h39.92A35.271,35.271,0,0,1,153.693,26.445Z" transform="translate(-76.8 -17.9)" fill="#0074b8"/>
        </g>
        <g id="Group_218" data-name="Group 218" transform="translate(1007.062 1622.536)">
          <path id="Path_441" data-name="Path 441" d="M250.89,10.035H237.867A5.067,5.067,0,0,1,232.8,4.967h0A5.067,5.067,0,0,1,237.867-.1H250.89a5.067,5.067,0,0,1,5.067,5.067h0A5.105,5.105,0,0,1,250.89,10.035Z" transform="translate(-232.8 0.1)" fill="#0074b8"/>
        </g>
        <g id="Group_220" data-name="Group 220" transform="translate(1037.048 1414)">
          <path id="Path_441-2" data-name="Path 441" d="M256.224,13.023H239.362A6.561,6.561,0,0,1,232.8,6.462h0A6.561,6.561,0,0,1,239.362-.1h16.862a6.561,6.561,0,0,1,6.562,6.562h0A6.611,6.611,0,0,1,256.224,13.023Z" transform="translate(-232.8 0.1)" fill="#0074b8"/>
        </g>
      </g>
      <g id="Group_213" data-name="Group 213" transform="translate(1036.524 1524)">
        <path id="Path_436" data-name="Path 436" d="M256.7,169.6h52.875a13.859,13.859,0,0,0-10,4.131,13.061,13.061,0,0,0-4.12,9.639,13.863,13.863,0,0,0,14.192,13.847H256.776a13.815,13.815,0,0,0,10-3.672,13.58,13.58,0,0,0,4.12-9.869A14.1,14.1,0,0,0,256.7,169.6Z" transform="translate(-263.7 -169.6)" fill="#0074b8"/>
      </g>
      <circle id="Ellipse_5" data-name="Ellipse 5" cx="94" cy="94" r="94" transform="translate(875 1430)" fill="#0074b8"/>
    </g>
    <g id="target" transform="translate(-882 1558.118)">
      <path id="Path_547" data-name="Path 547" d="M92.9,25.812A3.784,3.784,0,0,0,95.574,24.7l10.478-10.478a2.305,2.305,0,0,0-1.484-3.927l-5.576-.35L102.63,6.31A1.563,1.563,0,0,0,100.419,4.1L96.78,7.738l-.35-5.576A2.305,2.305,0,0,0,92.5.677L82.025,11.156a3.784,3.784,0,0,0-1.1,2.911l.36,5.738A49.335,49.335,0,0,0,12.831,90.586a1.563,1.563,0,0,0,2.313-2.1A46.225,46.225,0,0,1,80.9,23.614L73.77,30.748a36.176,36.176,0,0,0-56.632,43.2h0A36.2,36.2,0,0,0,84.775,64.76a1.563,1.563,0,1,0-3.062-.635,33.071,33.071,0,0,1-61.8,8.389h0A32.641,32.641,0,0,1,16.257,57.4a33.038,33.038,0,0,1,55.3-24.443l-7.07,7.07A23.1,23.1,0,1,0,66.7,42.239l7.07-7.07A32.93,32.93,0,0,1,82.4,57.208a1.563,1.563,0,0,0,1.563,1.554h.009a1.564,1.564,0,0,0,1.554-1.572,36.048,36.048,0,0,0-9.544-24.233l7.134-7.134a46.226,46.226,0,0,1-62.846,67.5,1.563,1.563,0,0,0-1.968,2.43A49.33,49.33,0,0,0,98.657,57.4a48.929,48.929,0,0,0-9.7-29.382q-.986-1.327-2.049-2.576c6.129.385,5.8.369,5.992.369ZM69.271,57.4a19.966,19.966,0,1,1-7-15.156l-7.114,7.114A9.953,9.953,0,1,0,57.37,51.57l7.114-7.114A19.856,19.856,0,0,1,69.271,57.4ZM48.223,58.506a1.563,1.563,0,0,0,2.211,0L55.12,53.82a6.82,6.82,0,1,1-2.211-2.211L48.223,56.3a1.563,1.563,0,0,0,0,2.211ZM84.045,13.871a.655.655,0,0,1,.191-.5l9.188-9.188.408,6.507-9.4,9.4Zm2.6,8.423,9.4-9.4,6.507.408-9.188,9.188a.653.653,0,0,1-.5.191Z" transform="translate(1244 11)" fill="#fff"/>
    </g>
  </g>
</svg>
