<svg xmlns="http://www.w3.org/2000/svg" width="94.474" height="119.367" viewBox="0 0 94.474 119.367">
  <g id="graduated" transform="translate(-53.387 0)">
    <path id="Path_609" data-name="Path 609" d="M135.082,77.985l-7.006-2.057-15.242-9.955V63.691a20.286,20.286,0,0,0,8.006-14.248,4.658,4.658,0,0,0,3.909-4.591V38.579c0-.024,0-.048,0-.072V30.561a3.447,3.447,0,0,0,1.441-2.813V20.476l10.519-1.792a3.729,3.729,0,0,0,.5-7.229L101.751.176a3.71,3.71,0,0,0-2.261,0L64.03,11.455a3.741,3.741,0,0,0-1.162,6.51v9.509h-.087A3.625,3.625,0,0,0,59.16,31.1v4.72L56.823,49.536a3.892,3.892,0,0,0,3.837,4.545h7.915a3.893,3.893,0,0,0,3.837-4.546l-2.338-13.72V31.1a3.625,3.625,0,0,0-3.621-3.621h-.086V19l8.695,1.481v7.271a3.45,3.45,0,0,0,1.435,2.808l0,8.024v6.272a4.658,4.658,0,0,0,3.909,4.591,20.288,20.288,0,0,0,8,14.243v2.292L73.167,75.931l-7,2.055a17.78,17.78,0,0,0-12.78,17.069v5.211a1.749,1.749,0,0,0,3.5,0V95.055A14.37,14.37,0,0,1,67.152,81.341l6.522-1.915L99.731,94.91a1.769,1.769,0,0,0,1.786,0l26.059-15.484L134.1,81.34a14.371,14.371,0,0,1,10.267,13.714v16.888a3.933,3.933,0,0,1-3.928,3.928h-7.707v-7.537a1.749,1.749,0,1,0-3.5,0v7.537H72.009v-7.537a1.749,1.749,0,1,0-3.5,0v7.537h-7.7a3.933,3.933,0,0,1-3.928-3.928v-3.5a1.749,1.749,0,1,0-3.5,0v3.5a7.434,7.434,0,0,0,7.425,7.425h79.623a7.434,7.434,0,0,0,7.425-7.425V95.054a17.781,17.781,0,0,0-12.778-17.069Zm-66.509-27.4H60.659a.394.394,0,0,1-.39-.461l2.115-12.411h4.465l2.115,12.411A.394.394,0,0,1,68.574,50.584Zm-2-19.489v3.12H62.657V31.1a.124.124,0,0,1,.124-.124h3.67A.124.124,0,0,1,66.576,31.1ZM94.371,87l.7,1.07L77.215,77.463l11.331-7.4A36.729,36.729,0,0,0,94.371,87Zm-.012-7.548a44.962,44.962,0,0,0,12.531,0,33.4,33.4,0,0,1-2.943,5.641L100.624,90.2,97.3,85.094a33.4,33.4,0,0,1-2.943-5.641ZM106.878,87A36.725,36.725,0,0,0,112.7,70.062l11.331,7.4L106.182,88.07Zm10.228-55.788h4.144V36.83h-2.057a2.09,2.09,0,0,1-2.088-2.087V31.212ZM65.09,14.788,100.55,3.508a.23.23,0,0,1,.141,0l35.46,11.279a.2.2,0,0,1,.161.237c-.013.182-.117.2-.193.212l-11.724,2-4.4-.544a1.748,1.748,0,1,0-.429,3.471l3.126.387v7.169l-44.134,0V20.547L96.65,18.308a32.389,32.389,0,0,1,7.941,0l6.848.847a1.748,1.748,0,0,0,.429-3.471l-6.848-.847a35.87,35.87,0,0,0-8.8,0l-19.372,2.4-11.728-2c-.076-.013-.18-.031-.193-.212a.2.2,0,0,1,.161-.237Zm14.9,22.043,0-5.618h4.151v3.531a2.09,2.09,0,0,1-2.088,2.087H79.994Zm3.848,11.714a2.71,2.71,0,0,0-2.694-2.539,1.155,1.155,0,0,1-1.154-1.154V40.328h2.06a5.591,5.591,0,0,0,5.584-5.584V31.212h25.969v3.531a5.591,5.591,0,0,0,5.584,5.584h2.06v4.524a1.155,1.155,0,0,1-1.154,1.154,2.71,2.71,0,0,0-2.694,2.539,16.816,16.816,0,0,1-33.563,0Zm16.782,19.242a20.182,20.182,0,0,0,8.714-1.975v1.108a33.324,33.324,0,0,1-1.18,8.783,41.288,41.288,0,0,1-15.069,0,33.322,33.322,0,0,1-1.18-8.783c0-.037-.005-.073-.007-.11,0-.007,0-.014,0-.022v-.98a20.184,20.184,0,0,0,8.722,1.979Z" transform="translate(0 0)" fill="#fff"/>
  </g>
</svg>
