<svg id="online-course" xmlns="http://www.w3.org/2000/svg" width="119.367" height="119.367" viewBox="0 0 119.367 119.367">
  <g id="Group_434" data-name="Group 434">
    <path id="Path_599" data-name="Path 599" d="M107.431,46.8V11.937a5.975,5.975,0,0,0-5.968-5.968H99.473A5.975,5.975,0,0,0,93.5,0H59.684a7.908,7.908,0,0,0-5.968,2.75A7.908,7.908,0,0,0,47.747,0H13.926A5.975,5.975,0,0,0,7.958,5.968H5.968A5.975,5.975,0,0,0,0,11.937v73.61a5.975,5.975,0,0,0,5.968,5.968H71.62v9.947a17.926,17.926,0,0,0,17.905,17.905h11.937a17.926,17.926,0,0,0,17.905-17.905v-37.8A17.92,17.92,0,0,0,107.431,46.8ZM99.473,9.947h1.989a1.992,1.992,0,0,1,1.989,1.989V45.875a17.9,17.9,0,0,0-1.989-.117H99.473ZM19.894,3.979H31.831v26.16L27.416,24.62a1.988,1.988,0,0,0-3.106,0l-4.415,5.519V3.979ZM11.937,5.968a1.992,1.992,0,0,1,1.989-1.989h1.989V35.81a1.989,1.989,0,0,0,3.543,1.242l6.4-8.005,6.4,8.005A1.989,1.989,0,0,0,35.81,35.81V3.979H47.747a3.983,3.983,0,0,1,3.979,3.979V72.85a7.844,7.844,0,0,0-4.168-1.23H11.937Zm0,69.631H47.558a4.282,4.282,0,0,1,4.121,3.979H11.937ZM71.62,87.536H5.968a1.992,1.992,0,0,1-1.989-1.989V11.937A1.992,1.992,0,0,1,5.968,9.947H7.958v71.62a1.989,1.989,0,0,0,1.989,1.989H71.62Zm0-7.958H55.752A4.287,4.287,0,0,1,59.883,75.6H71.62Zm0-7.958H59.883A7.86,7.86,0,0,0,55.7,72.853V7.958a3.983,3.983,0,0,1,3.979-3.979H93.5a1.992,1.992,0,0,1,1.989,1.989V45.757H89.525A17.926,17.926,0,0,0,71.62,63.662ZM93.5,49.736V75.6H75.6V63.662A13.942,13.942,0,0,1,89.525,49.736H93.5Zm21.884,51.726a13.942,13.942,0,0,1-13.926,13.926H89.525A13.942,13.942,0,0,1,75.6,101.462V79.578h39.789v21.884Zm0-25.863H97.483V49.736h3.979a13.942,13.942,0,0,1,13.926,13.926Z" fill="#fff"/>
  </g>
</svg>
