<svg xmlns="http://www.w3.org/2000/svg" width="19.679" height="18.862" viewBox="0 0 27.679 26.862">
  <g id="Group_394" data-name="Group 394" transform="translate(0 0)">
    <rect id="Rectangle_132" data-name="Rectangle 132" width="4.466" height="1.66" transform="translate(20.946 13.072)" fill="#0074b8"/>
    <path id="Path_567" data-name="Path 567" d="M2.931.463v2.61L4.07,2.722V1.6H26.878v14.54H8.729L8.67,17.283h19.35V.463Z" transform="translate(-0.34 -0.463)" fill="#0074b8"/>
    <ellipse id="Ellipse_93" data-name="Ellipse 93" cx="3.378" cy="3.378" rx="3.378" ry="3.378" transform="translate(1.027 2.866)" fill="#0074b8"/>
    <path id="Path_568" data-name="Path 568" d="M7.273,26.318V18.968h.215l.314-6.1,5.825-3.019-.49-.944.142.248,6.242-3.573-.282-.5L13.006,8.649l-.145-.28-5.326,2.76h-1.9L4.347,12.621,3.1,11.128l-2.737.508L.188,17.708H1.349l.063,1.261h.176v7.349H1.355L0,26.612V27.86H1.154L2.5,27.641l.012.219H4.005V20.3h.85V27.86H6.347l.012-.219,1.347.219H8.86V26.612L7.5,26.318Z" transform="translate(0 -0.999)" fill="#0074b8"/>
  </g>
</svg>
