<svg xmlns="http://www.w3.org/2000/svg" width="218.58" height="138.671" viewBox="0 0 298.58 218.671">
  <g id="Group_414" data-name="Group 414" transform="translate(-110)">
    <g id="Group_234" data-name="Group 234" transform="translate(-699 -1420.36)">
      <g id="Group_232" data-name="Group 232" transform="translate(0 6.36)">
        <g id="Group_212" data-name="Group 212" transform="translate(1004.07 1504.172)">
          <path id="Path_434" data-name="Path 434" d="M226.992,132.5h75.841a14.214,14.214,0,0,1,14.192,14.192h0a14.214,14.214,0,0,1-14.192,14.192H226.992A14.214,14.214,0,0,1,212.8,146.692h0A14.165,14.165,0,0,1,226.992,132.5Z" transform="translate(-214.8 -145.5)" fill="#0074b8"/>
        </g>
        <g id="Group_219" data-name="Group 219" transform="translate(969.776 1447.588)">
          <path id="Path_434-2" data-name="Path 434" d="M226.992,132.5h75.841a14.214,14.214,0,0,1,14.192,14.192h0a14.214,14.214,0,0,1-14.192,14.192H226.992A14.214,14.214,0,0,1,212.8,146.692h0A14.165,14.165,0,0,1,226.992,132.5Z" transform="translate(-212.8 -132.5)" fill="#0074b8"/>
        </g>
        <g id="Group_214" data-name="Group 214" transform="translate(825.938 1489.141)">
          <path id="Path_437" data-name="Path 437" d="M116.019,107.062H27.131A15.011,15.011,0,0,1,12.1,92.031h0A15.011,15.011,0,0,1,27.131,77h88.888A15.011,15.011,0,0,1,131.05,92.031h0A15.011,15.011,0,0,1,116.019,107.062Z" transform="translate(-12.1 -77)" fill="#0074b8"/>
        </g>
        <g id="Group_215" data-name="Group 215" transform="translate(809 1550.157)">
          <path id="Path_438" data-name="Path 438" d="M150.156,209.288H21.745C9.69,209.288,0,201.252,0,191.394H0C0,181.537,9.69,173.5,21.745,173.5H150.156c11.979,0,21.745,7.974,21.745,17.894h0C171.9,201.252,162.135,209.288,150.156,209.288Z" transform="translate(0 -173.5)" fill="#0074b8"/>
        </g>
        <g id="Group_216" data-name="Group 216" transform="translate(1012.74 1542.455)">
          <path id="Path_439" data-name="Path 439" d="M266.261,63.658H195.379A11.951,11.951,0,0,1,183.4,51.679h0A11.951,11.951,0,0,1,195.379,39.7h70.882A11.951,11.951,0,0,1,278.24,51.679h0A11.9,11.9,0,0,1,266.261,63.658Z" transform="translate(-183.4 -39.7)" fill="#0074b8"/>
        </g>
        <g id="Group_221" data-name="Group 221" transform="translate(969.776 1589.948)">
          <path id="Path_439-2" data-name="Path 439" d="M255.273,58.752H193.791c-5.758,0-10.391-4.247-10.391-9.526h0c0-5.279,4.633-9.526,10.391-9.526h61.483c5.758,0,10.391,4.247,10.391,9.526h0C265.73,54.5,261.031,58.752,255.273,58.752Z" transform="translate(-166.4 -44.7)" fill="#0074b8"/>
        </g>
        <g id="Group_217" data-name="Group 217" transform="translate(867.325 1430)">
          <path id="Path_440" data-name="Path 440" d="M153.693,26.445a31.877,31.877,0,0,1,4.716.305c-.674-4.959-5.306-8.851-11.033-8.851H87.917C81.769,17.9,76.8,22.4,76.8,27.971s4.969,10.071,11.117,10.071h39.92A35.271,35.271,0,0,1,153.693,26.445Z" transform="translate(-76.8 -17.9)" fill="#0074b8"/>
        </g>
        <g id="Group_218" data-name="Group 218" transform="translate(1007.062 1622.536)">
          <path id="Path_441" data-name="Path 441" d="M250.89,10.035H237.867A5.067,5.067,0,0,1,232.8,4.967h0A5.067,5.067,0,0,1,237.867-.1H250.89a5.067,5.067,0,0,1,5.067,5.067h0A5.105,5.105,0,0,1,250.89,10.035Z" transform="translate(-232.8 0.1)" fill="#0074b8"/>
        </g>
        <g id="Group_220" data-name="Group 220" transform="translate(1037.048 1414)">
          <path id="Path_441-2" data-name="Path 441" d="M256.224,13.023H239.362A6.561,6.561,0,0,1,232.8,6.462h0A6.561,6.561,0,0,1,239.362-.1h16.862a6.561,6.561,0,0,1,6.562,6.562h0A6.611,6.611,0,0,1,256.224,13.023Z" transform="translate(-232.8 0.1)" fill="#0074b8"/>
        </g>
      </g>
      <g id="Group_213" data-name="Group 213" transform="translate(1036.524 1524)">
        <path id="Path_436" data-name="Path 436" d="M256.7,169.6h52.875a13.859,13.859,0,0,0-10,4.131,13.061,13.061,0,0,0-4.12,9.639,13.863,13.863,0,0,0,14.192,13.847H256.776a13.815,13.815,0,0,0,10-3.672,13.58,13.58,0,0,0,4.12-9.869A14.1,14.1,0,0,0,256.7,169.6Z" transform="translate(-263.7 -169.6)" fill="#0074b8"/>
      </g>
      <circle id="Ellipse_5" data-name="Ellipse 5" cx="94" cy="94" r="94" transform="translate(875 1430)" fill="#0074b8"/>
    </g>
    <g id="pay" transform="translate(220.377 60.183)">
      <path id="Path_457" data-name="Path 457" d="M127.458,324.727l-3.72-2.229a7.319,7.319,0,0,0-3.753-1.037h-5.6a13.212,13.212,0,0,0-3.4.438l-16.868,4.528a5.882,5.882,0,0,0-3.972,3.684l-14.837-8.027a5.813,5.813,0,0,0-3.971-.656,5.481,5.481,0,0,0-1.477.485,5.742,5.742,0,0,0-2.509,2.337,5.853,5.853,0,0,0-.772,2.906,5.788,5.788,0,0,0,2.887,5.052l26.591,15.91a7.3,7.3,0,0,0,3.845,1.094h20.579a7.281,7.281,0,0,0,2.684-.511l4.285-1.692v2.2h14.606V320H127.458ZM122.1,345.984a4.394,4.394,0,0,1-1.607.307H99.908a4.394,4.394,0,0,1-2.327-.669L70.953,329.693a2.906,2.906,0,0,1-1.452-2.536,2.967,2.967,0,0,1,.392-1.461,2.871,2.871,0,0,1,1.254-1.158,2.753,2.753,0,0,1,.73-.237,3.076,3.076,0,0,1,.56-.052,2.864,2.864,0,0,1,1.431.379l16.089,8.694c.019.089.019.177.042.266a5.857,5.857,0,0,0,5.647,4.323,14.355,14.355,0,0,0,2.407-.429l15.175-4.061-.753-2.822-15.126,4.043c-.666.153-1.525.329-1.7.344a2.921,2.921,0,0,1-2.823-2.152,2.667,2.667,0,0,1-.085-.541s-.011-.354,0-.478a2.952,2.952,0,0,1,2.149-2.576l16.861-4.511a10.207,10.207,0,0,1,2.639-.347h5.6a4.38,4.38,0,0,1,2.251.623l5.222,3.127v15.735Zm8.28-23.063h8.763v23.369h-8.763Zm0,0" transform="translate(-54.428 -261.577)" fill="#fff"/>
      <path id="Path_458" data-name="Path 458" d="M60.24,11.684,52.405,3.85A13.054,13.054,0,0,0,43.111,0H24.748a7.353,7.353,0,0,0-3.266.771L18.209,2.408a4.329,4.329,0,0,1-2.119.459l-1.484-.052V0H0V32.133H14.606V27.751h2.483l.884.584a16.1,16.1,0,0,0,8.318,2.677V49.66H87.635V11.684ZM11.685,29.211H2.921V2.921h8.763Zm7.9-3.307L17.965,24.83H14.606V5.737l1.377.049a7.333,7.333,0,0,0,3.532-.765l3.271-1.637a4.39,4.39,0,0,1,1.963-.463H43.111A10.155,10.155,0,0,1,50.34,5.915l5.77,5.77H44.057L40.512,8.14,38.447,10.2,48.765,20.523a2.929,2.929,0,0,1-4.134,4.151l-8.617-8.617-1.023.876a7.741,7.741,0,0,1-9.845.145l-.847-.686-1.841,2.269.856.694a10.647,10.647,0,0,0,2.975,1.677V28.09a13.171,13.171,0,0,1-6.7-2.185Zm20.777-1.367,2.2,2.2a5.885,5.885,0,0,0,8.252.007,7.393,7.393,0,1,0,.83-1.059,5.744,5.744,0,0,0,.479-5.242H71.69a8.788,8.788,0,0,0,7.182,7.182v6.085A8.788,8.788,0,0,0,71.69,40.9H42.236a8.788,8.788,0,0,0-7.182-7.182V27.63a8.719,8.719,0,0,0,5.312-3.092Zm12.215,6.135a4.382,4.382,0,1,1,4.382,4.382A4.382,4.382,0,0,1,52.581,30.672ZM84.714,46.738h-55.5V21.644a10.62,10.62,0,0,0,6.573-1.68l2.492,2.492a5.828,5.828,0,0,1-4.683,2.373H32.133V36.514h1.461a5.843,5.843,0,0,1,5.842,5.842v1.461H74.49V42.357a5.843,5.843,0,0,1,5.842-5.842h1.461V24.83H80.332a5.843,5.843,0,0,1-5.842-5.842V17.527H49.9l-2.921-2.921H84.714Zm0,0" fill="#fff"/>
    </g>
  </g>
</svg>
