<svg xmlns="http://www.w3.org/2000/svg" width="89" height="89" viewBox="0 0 89 89">
  <g id="Group_467" data-name="Group 467" transform="translate(-1122 -1824)">
    <rect id="Rectangle_158" data-name="Rectangle 158" width="89" height="89" rx="3" transform="translate(1122 1824)" fill="#f3f3f3"/>
    <g id="Group_461" data-name="Group 461" transform="translate(-791.882 229.083)">
      <g id="Group_458" data-name="Group 458" transform="translate(1941.974 1620.917)">
        <path id="Path_616" data-name="Path 616" d="M2004.434,1671.889l-1.24-14.148-8.962-5.668-.867,10.376-2.482-1.71-1.555,3.027,2.142,8.123Z" transform="translate(-1971.742 -1634.667)" fill="#0074b8"/>
        <path id="Path_617" data-name="Path 617" d="M1957.848,1671.889l1.24-14.148,8.962-5.668.867,10.376,2.482-1.71,1.555,3.027-2.142,8.123Z" transform="translate(-1957.848 -1634.667)" fill="#0074b8"/>
        <path id="Path_618" data-name="Path 618" d="M1957.848,1671.736c0-.845,1.24-14.148,1.24-14.148l8.962-5.862" transform="translate(-1957.848 -1634.515)" fill="none" stroke="#002347" stroke-linejoin="round" stroke-width="3"/>
        <path id="Path_619" data-name="Path 619" d="M1976.111,1651.726l.9,10.991,5.242-4.566Z" transform="translate(-1965.908 -1634.514)" fill="none" stroke="#002347" stroke-linecap="round" stroke-linejoin="round" stroke-width="3"/>
        <path id="Path_634" data-name="Path 634" d="M2.142,0,0,8.342" transform="translate(12.964 28.879)" fill="none" stroke="#002347" stroke-linecap="round" stroke-width="3"/>
        <path id="Path_620" data-name="Path 620" d="M2008.309,1671.736c0-.845-1.24-14.148-1.24-14.148l-8.962-5.862" transform="translate(-1975.616 -1634.515)" fill="none" stroke="#002347" stroke-linejoin="round" stroke-width="3"/>
        <path id="Path_621" data-name="Path 621" d="M1993.252,1651.726l-.9,10.991-5.242-4.566Z" transform="translate(-1970.762 -1634.514)" fill="none" stroke="#002347" stroke-linecap="round" stroke-linejoin="round" stroke-width="3"/>
        <path id="Path_622" data-name="Path 622" d="M1984.9,1663.228l-2.795,2.434,1.555,2.808h2.48l1.555-2.808Z" transform="translate(-1968.554 -1639.591)" fill="none" stroke="#002347" stroke-linecap="round" stroke-linejoin="round" stroke-width="3"/>
        <line id="Line_304" data-name="Line 304" x2="2.142" y2="8.342" transform="translate(17.586 28.879)" fill="none" stroke="#002347" stroke-linecap="round" stroke-linejoin="round" stroke-width="3"/>
        <line id="Line_305" data-name="Line 305" x2="4.791" transform="translate(22.49 31.942)" fill="none" stroke="#344154" stroke-linecap="round" stroke-linejoin="round" stroke-width="3"/>
        <path id="Path_623" data-name="Path 623" d="M1988.477,1628.921c0-4.42-2.919-8-6.519-8s-6.52,3.584-6.52,8,2.919,8,6.52,8S1988.477,1633.341,1988.477,1628.921Z" transform="translate(-1965.611 -1620.917)" fill="none" stroke="#002347" stroke-linecap="round" stroke-linejoin="round" stroke-width="3"/>
      </g>
      <g id="Group_459" data-name="Group 459" transform="translate(1973.281 1628.61)">
        <line id="Line_306" data-name="Line 306" y1="3.94" x2="6.024" transform="translate(0 11.568)" fill="none" stroke="#002347" stroke-linejoin="round" stroke-width="3"/>
        <line id="Line_307" data-name="Line 307" x1="4.129" y1="4.319" transform="translate(6.024 11.568)" fill="none" stroke="#002347" stroke-linecap="round" stroke-linejoin="round" stroke-width="3"/>
        <path id="Path_624" data-name="Path 624" d="M2046.65,1670.511c0-.568-1.173-11.176-1.173-11.176l-6.024-3.94" transform="translate(-2025.171 -1643.827)" fill="none" stroke="#002347" stroke-linejoin="round" stroke-width="3"/>
        <path id="Path_625" data-name="Path 625" d="M2036.191,1655.395l-4.129,4.319v8.362" transform="translate(-2021.908 -1643.827)" fill="none" stroke="#002347" stroke-linecap="round" stroke-linejoin="round" stroke-width="3"/>
        <ellipse id="Ellipse_104" data-name="Ellipse 104" cx="4.382" cy="5.38" rx="4.382" ry="5.38" transform="translate(5.771)" fill="none" stroke="#002347" stroke-linecap="round" stroke-linejoin="round" stroke-width="3"/>
      </g>
      <g id="Group_460" data-name="Group 460" transform="translate(1921.882 1628.61)">
        <line id="Line_308" data-name="Line 308" x1="6.024" y1="3.94" transform="translate(15.455 11.568)" fill="none" stroke="#002347" stroke-linejoin="round" stroke-width="3"/>
        <line id="Line_309" data-name="Line 309" y1="4.319" x2="4.129" transform="translate(11.326 11.568)" fill="none" stroke="#002347" stroke-linecap="round" stroke-linejoin="round" stroke-width="3"/>
        <path id="Path_626" data-name="Path 626" d="M1921.882,1670.511c0-.568,1.173-11.176,1.173-11.176l6.024-3.94" transform="translate(-1921.882 -1643.827)" fill="none" stroke="#002347" stroke-linejoin="round" stroke-width="3"/>
        <path id="Path_627" data-name="Path 627" d="M1934.763,1655.395l4.13,4.319v8.362" transform="translate(-1927.567 -1643.827)" fill="none" stroke="#002347" stroke-linecap="round" stroke-linejoin="round" stroke-width="3"/>
        <ellipse id="Ellipse_105" data-name="Ellipse 105" cx="4.382" cy="5.38" rx="4.382" ry="5.38" transform="translate(6.944)" fill="none" stroke="#002347" stroke-linecap="round" stroke-linejoin="round" stroke-width="3"/>
      </g>
    </g>
  </g>
</svg>
