<svg xmlns="http://www.w3.org/2000/svg" width="32.09" height="20.517" viewBox="0 0 41.09 29.517">
  <g id="image-removebg-preview_3_1_" data-name="image-removebg-preview (3) (1)" transform="translate(-21 238)">
    <path id="Path_610" data-name="Path 610" d="M21.4-237.6l-.4.385v16.34l.369.337c.353.337.5.353,3.852.353H28.7v5.3a40.658,40.658,0,0,0,.177,5.682c.3.642.867.77,3.274.706,2.055-.048,2.215-.064,2.488-.417.161-.193,1.172-2.969,2.231-6.18l1.942-5.81v-16.4l-.369-.337c-.369-.353-.369-.353-8.523-.353H21.786Z" fill="#da559a"/>
    <path id="Path_611" data-name="Path 611" d="M166.353-237.631c-.353.369-.353.369-.353,8.555,0,6.822.032,8.234.225,8.507.209.289.5.3,3.82.385l3.579.08.08,5.489c.08,4.992.112,5.522.369,5.778.241.241.626.3,2.456.337,2.343.064,2.937-.064,3.258-.658.1-.193,1.043-2.953,2.1-6.131l1.926-5.778v-16.147l-.4-.385-.385-.4H166.69Z" transform="translate(-121.726)" fill="#da559a"/>
  </g>
</svg>
