<svg id="image-removebg-preview_3_1_" data-name="image-removebg-preview (3) (1)" xmlns="http://www.w3.org/2000/svg" width="32.09" height="20.517" viewBox="0 0 41.09 29.517">
  <path id="Path_610" data-name="Path 610" d="M38.415-208.885l.4-.385v-16.34l-.369-.337c-.353-.337-.5-.353-3.852-.353H31.112v-5.3a40.658,40.658,0,0,0-.177-5.682c-.3-.642-.867-.77-3.274-.706-2.055.048-2.215.064-2.488.417-.161.193-1.172,2.969-2.231,6.18L21-225.578v16.4l.369.337c.369.353.369.353,8.523.353H38.03Z" transform="translate(2.274 238)" fill="#da559a"/>
  <path id="Path_611" data-name="Path 611" d="M183.463-208.853c.353-.369.353-.369.353-8.555,0-6.822-.032-8.234-.225-8.507-.209-.289-.5-.3-3.82-.385l-3.579-.08-.08-5.489c-.08-4.992-.112-5.522-.369-5.778-.241-.241-.626-.3-2.456-.337-2.343-.064-2.937.064-3.258.658-.1.193-1.043,2.953-2.1,6.131L166-225.417v16.147l.4.385.385.4h16.34Z" transform="translate(-166 238)" fill="#da559a"/>
</svg>
