<svg xmlns="http://www.w3.org/2000/svg" width="180.917" height="180.709" viewBox="0 0 180.917 180.709">
  <path id="Intersection_5" data-name="Intersection 5" d="M1059.5,192.395,1099.79,68.019,1059.5,192.395Zm-5.519-.221,41.212-127.21-41.212,127.21ZM1104.243,71.53l-39.082,120.637Zm-55.647,120,41.856-129.2L1048.6,191.53Zm59.939-115.992-37.55,115.907Zm-65.189,114.941L1085.581,60.11l-42.235,130.368Zm69.3-110.372-35.653,110.051Zm-74.42,108.923,42.356-130.744-42.356,130.744Zm78.318-103.7-33.328,102.874Zm-83.311,101.854,42.222-130.329-42.222,130.329Zm86.947-95.82L1089.7,185.436Zm-91.811,93.577L1070.2,55.825l-41.829,129.117Zm-4.732-2.651L1064.809,55.2l-41.172,127.089Zm99.832-83.824-26.93,83.125Zm-104.425,80.745L1059.283,55l-40.24,124.21Zm107.2-72.061-22.36,69.02ZM1014.6,175.678l39.013-120.424L1014.6,175.678Zm-4.283-4.034L1047.779,56l-37.464,115.641Zm117.762-52.889-15.911,49.112Zm-121.863,48.29,35.547-109.724-35.547,109.724Zm-3.886-5.261,33.2-102.474-33.2,102.474Zm-3.621-6.08,30.316-93.579L998.708,155.7Zm-3.269-7.167,26.728-82.5-26.728,82.5ZM992.7,139.75l22.093-68.194L992.7,139.75Zm-1.758-11.828,15.5-47.839-15.5,47.839Z" transform="matrix(0.921, -0.391, 0.391, 0.921, -933.156, 390.472)" fill="none" stroke="#3e468f" stroke-width="1" opacity="0.11"/>
</svg>
