<svg xmlns="http://www.w3.org/2000/svg" width="138.541" height="119.367" viewBox="0 0 138.541 119.367">
  <g id="teacher" transform="translate(0 -35.431)">
    <path id="Path_600" data-name="Path 600" d="M408.292,297.352H395.3a2.029,2.029,0,1,0,0,4.059h12.988a2.029,2.029,0,0,0,0-4.059Z" transform="translate(-286.859 -191.048)" fill="#fff"/>
    <path id="Path_601" data-name="Path 601" d="M408.292,328.181H395.3a2.029,2.029,0,1,0,0,4.059h12.988a2.029,2.029,0,0,0,0-4.059Z" transform="translate(-286.859 -213.535)" fill="#fff"/>
    <path id="Path_602" data-name="Path 602" d="M408.292,266.523H395.3a2.029,2.029,0,1,0,0,4.059h12.988a2.029,2.029,0,0,0,0-4.059Z" transform="translate(-286.859 -168.561)" fill="#fff"/>
    <path id="Path_603" data-name="Path 603" d="M286.806,256.769a3.286,3.286,0,0,0-3.283,3.283v1.923h-4.762a3.286,3.286,0,0,0-3.282,3.282v1.736H270.7a3.286,3.286,0,0,0-3.282,3.282v9.5a3.015,3.015,0,0,0,3.012,3.012h22.194a3.015,3.015,0,0,0,3.012-3.012V260.051a3.286,3.286,0,0,0-3.282-3.283Zm-11.327,21.963h-4v-7.681h4Zm8.044,0h-3.985v-12.7h3.985Zm8.057,0h-3.985c0-13.126-.013-17.3-.013-17.9h4v17.9Z" transform="translate(-195.061 -161.447)" fill="#fff"/>
    <path id="Path_604" data-name="Path 604" d="M4.991,154.8H39.28a2.029,2.029,0,0,0,0-4.059H18.428V123.475a2.029,2.029,0,1,0-4.059,0v27.264H4.991a.933.933,0,0,1-.932-.932V121.082a13.206,13.206,0,0,1,7.615-11.9l13.2-5.154,7.854,7.854a15.965,15.965,0,0,0,22.584,0l7.743-7.743V131a5.214,5.214,0,0,0,5.208,5.208H69.6V150.74H48.751a2.029,2.029,0,0,0,0,4.059H83.04a5,5,0,0,0,4.991-4.991V136.2h8.423v6.223a6.353,6.353,0,1,0,4.059,0V136.2h28.2A5.214,5.214,0,0,0,133.917,131V113.069a2.029,2.029,0,0,0-4.059,0V131a1.15,1.15,0,0,1-1.149,1.149H68.259A1.15,1.15,0,0,1,67.11,131V83.549h62.748V103.6a2.029,2.029,0,0,0,4.059,0V83.549h0a4.628,4.628,0,0,0,4.623-4.623V75.014a4.628,4.628,0,0,0-4.623-4.623H69.946A8.8,8.8,0,0,0,66.5,64.914a5.091,5.091,0,0,0,.305-1.726V50.08a7.16,7.16,0,0,0-7.557-7.15,1.009,1.009,0,0,1-1.12-.745c-.889-4.545-3.744-6.754-8.729-6.754H32.176A13.49,13.49,0,0,0,18.7,48.906V61.467a6.822,6.822,0,0,0,1.763,4.581,8.334,8.334,0,0,0,5.255,14.3A18.446,18.446,0,0,0,32.89,92.513v4.024l-22.712,8.87-.034.014A17.16,17.16,0,0,0,0,121.082v28.725A5,5,0,0,0,4.991,154.8Zm93.493-8.647a2.294,2.294,0,1,1-2.294,2.294A2.3,2.3,0,0,1,98.484,146.151ZM73.663,136.2h10.31v13.6a.933.933,0,0,1-.932.932H73.663V136.2ZM38.718,111.256l3.971-4,.007-.008a3.514,3.514,0,0,0,.452-.577h1.7a3.462,3.462,0,0,0,.46.585l3.982,4.008a11.9,11.9,0,0,1-10.573-.011ZM36.946,97.021c0-.051,0-.1,0-.155V94.782a19.22,19.22,0,0,0,14.122.032l0,2.067c0,.039,0,.077,0,.116l-5.658,5.617H42.58ZM52.6,108.844,48.781,105l4.706-4.672,5.506,2.132Zm10.447-9.17-7.92-3.067,0-4.073a18.306,18.306,0,0,0,6.533-9.2,4.6,4.6,0,0,0,1.389.214h0Zm70.867-25.225a.565.565,0,0,1,.564.564v3.912a.565.565,0,0,1-.564.564H63.05a.565.565,0,0,1-.564-.564V75.013a.565.565,0,0,1,.564-.564Zm-70.25-6.537a4.693,4.693,0,0,1,2.085,2.478h-2.7a5.648,5.648,0,0,0-.564.034V68.251a5.476,5.476,0,0,0,1.183-.339Zm-38.123,8.3a4.436,4.436,0,0,1-3.557-4.194,4.7,4.7,0,0,1,2.242-3.829,6.846,6.846,0,0,0,.981.12q.167.009.334.009v7.893Zm0-11.952a2.8,2.8,0,0,1-2.79-2.79V48.906a9.426,9.426,0,0,1,9.416-9.416H49.4c3.76,0,4.374,1.573,4.745,3.474a5.073,5.073,0,0,0,5.414,4.013,3.107,3.107,0,0,1,3.187,3.1V63.188a1.09,1.09,0,0,1-1.069,1.069A3.9,3.9,0,0,1,57.8,60.375a2.337,2.337,0,0,0-4.392-1.1A9.407,9.407,0,0,1,45.1,64.256H25.55ZM29.6,77.908V68.315H45.1a13.466,13.466,0,0,0,9.649-4.069,7.989,7.989,0,0,0,3.68,3.369V77.908a14.413,14.413,0,0,1-28.822,0Zm4.861,22.371L39.216,105l-3.806,3.832L29,102.414Z" transform="translate(0 0)" fill="#fff"/>
  </g>
</svg>
