<?xml version="1.0" encoding="utf-8"?>
<!-- Generator: Adobe Illustrator 24.0.1, SVG Export Plug-In . SVG Version: 6.00 Build 0)  -->
<svg version="1.1" xmlns="http://www.w3.org/2000/svg" xmlns:xlink="http://www.w3.org/1999/xlink" x="0px" y="0px"
	 viewBox="0 0 768 768" style="enable-background:new 0 0 768 768;" xml:space="preserve">
<style type="text/css">
	.st0{display:none;}
	.st1{display:inline;fill:#1A3B60;}
	.st2{fill:#FFFFFF;}
	.st3{fill:#E66CA8;}
	.st4{fill:#4E95D0;}
</style>
<g id="Layer_2" class="st0">
	<rect y="0" class="st1" width="768" height="768"/>
</g>
<g id="Layer_1">
	<g>
		<path class="st2" d="M318.94,535.41h-5.82v-2.1h14.16v2.1h-5.85v17.03h-2.5V535.41z"/>
		<path class="st2" d="M341.76,545.45c0,5.08-3.52,7.29-6.84,7.29c-3.72,0-6.58-2.72-6.58-7.07c0-4.6,3.01-7.29,6.81-7.29
			C339.09,538.39,341.76,541.25,341.76,545.45z M330.86,545.59c0,3.01,1.73,5.28,4.17,5.28c2.38,0,4.17-2.24,4.17-5.34
			c0-2.33-1.16-5.28-4.12-5.28C332.14,540.26,330.86,542.98,330.86,545.59z"/>
		<path class="st2" d="M351,533.56c1.08-0.23,2.78-0.4,4.51-0.4c2.47,0,4.06,0.43,5.25,1.39c0.99,0.74,1.59,1.87,1.59,3.38
			c0,1.84-1.22,3.46-3.24,4.2v0.06c1.82,0.45,3.95,1.96,3.95,4.8c0,1.65-0.65,2.89-1.62,3.83c-1.33,1.22-3.49,1.79-6.61,1.79
			c-1.7,0-3.01-0.11-3.83-0.23V533.56z M353.47,541.39h2.24c2.61,0,4.14-1.36,4.14-3.21c0-2.24-1.7-3.12-4.2-3.12
			c-1.14,0-1.79,0.08-2.19,0.17V541.39z M353.47,550.56c0.48,0.08,1.19,0.11,2.07,0.11c2.55,0,4.91-0.94,4.91-3.72
			c0-2.61-2.24-3.69-4.94-3.69h-2.04V550.56z"/>
		<path class="st2" d="M367.69,546.02c0.06,3.38,2.21,4.77,4.71,4.77c1.79,0,2.87-0.31,3.8-0.71l0.43,1.79
			c-0.88,0.4-2.38,0.85-4.57,0.85c-4.23,0-6.75-2.78-6.75-6.93c0-4.14,2.44-7.41,6.44-7.41c4.48,0,5.68,3.95,5.68,6.47
			c0,0.51-0.06,0.91-0.08,1.16H367.69z M375.01,544.23c0.03-1.59-0.65-4.06-3.46-4.06c-2.53,0-3.63,2.33-3.83,4.06H375.01z"/>
		<path class="st2" d="M380.17,549.88c0.74,0.48,2.04,0.99,3.29,0.99c1.82,0,2.67-0.91,2.67-2.04c0-1.19-0.71-1.84-2.55-2.53
			c-2.47-0.88-3.63-2.24-3.63-3.89c0-2.21,1.79-4.03,4.74-4.03c1.39,0,2.61,0.4,3.38,0.85l-0.63,1.82
			c-0.54-0.34-1.53-0.79-2.81-0.79c-1.48,0-2.3,0.85-2.3,1.87c0,1.14,0.82,1.65,2.61,2.33c2.38,0.91,3.6,2.1,3.6,4.14
			c0,2.41-1.87,4.12-5.14,4.12c-1.5,0-2.9-0.37-3.86-0.94L380.17,549.88z"/>
		<path class="st2" d="M394.76,534.75v3.95h3.58v1.9h-3.58v7.41c0,1.7,0.48,2.67,1.87,2.67c0.65,0,1.14-0.08,1.45-0.17l0.11,1.87
			c-0.48,0.2-1.25,0.34-2.21,0.34c-1.16,0-2.1-0.37-2.7-1.05c-0.71-0.74-0.96-1.96-0.96-3.58v-7.49h-2.13v-1.9h2.13v-3.29
			L394.76,534.75z"/>
		<path class="st2" d="M407.24,533.31h2.47v17.06h8.17v2.07h-10.64V533.31z"/>
		<path class="st2" d="M421.94,546.02c0.06,3.38,2.21,4.77,4.71,4.77c1.79,0,2.87-0.31,3.8-0.71l0.43,1.79
			c-0.88,0.4-2.38,0.85-4.57,0.85c-4.23,0-6.75-2.78-6.75-6.93c0-4.14,2.44-7.41,6.44-7.41c4.48,0,5.68,3.95,5.68,6.47
			c0,0.51-0.06,0.91-0.08,1.16H421.94z M429.26,544.23c0.03-1.59-0.65-4.06-3.46-4.06c-2.53,0-3.63,2.33-3.83,4.06H429.26z"/>
		<path class="st2" d="M442.37,552.43l-0.2-1.73h-0.08c-0.77,1.08-2.24,2.04-4.2,2.04c-2.78,0-4.2-1.96-4.2-3.95
			c0-3.32,2.95-5.14,8.26-5.11v-0.28c0-1.13-0.31-3.18-3.12-3.18c-1.28,0-2.61,0.4-3.58,1.02l-0.57-1.65
			c1.14-0.74,2.78-1.22,4.51-1.22c4.2,0,5.22,2.87,5.22,5.62v5.14c0,1.19,0.06,2.36,0.23,3.29H442.37z M442,545.42
			c-2.72-0.06-5.82,0.42-5.82,3.09c0,1.62,1.08,2.38,2.36,2.38c1.79,0,2.92-1.14,3.32-2.3c0.08-0.26,0.14-0.54,0.14-0.79V545.42z"/>
		<path class="st2" d="M448.45,542.98c0-1.62-0.03-3.01-0.11-4.29h2.19l0.08,2.7h0.11c0.62-1.84,2.13-3.01,3.8-3.01
			c0.28,0,0.48,0.03,0.71,0.08v2.36c-0.26-0.06-0.51-0.08-0.85-0.08c-1.76,0-3.01,1.33-3.35,3.21c-0.06,0.34-0.11,0.74-0.11,1.16
			v7.32h-2.47V542.98z"/>
		<path class="st2" d="M457.72,542.42c0-1.42-0.03-2.58-0.11-3.72h2.21l0.14,2.27h0.06c0.68-1.31,2.27-2.58,4.54-2.58
			c1.9,0,4.85,1.14,4.85,5.85v8.2h-2.5v-7.92c0-2.21-0.82-4.06-3.18-4.06c-1.65,0-2.92,1.16-3.35,2.55
			c-0.11,0.31-0.17,0.74-0.17,1.16v8.26h-2.5V542.42z"/>
	</g>
	<g>
		<path class="st2" d="M278.56,510.08h-6.76v6.27h7.54v1.88h-9.78v-17.4h9.4v1.88h-7.15v5.5h6.76V510.08z"/>
		<path class="st2" d="M294.98,499.91v15.1c0,1.11,0.03,2.38,0.1,3.23h-2.04l-0.1-2.17h-0.05c-0.7,1.39-2.22,2.45-4.26,2.45
			c-3.02,0-5.34-2.56-5.34-6.35c-0.03-4.16,2.56-6.71,5.6-6.71c1.91,0,3.2,0.9,3.77,1.91h0.05v-7.46H294.98z M292.71,510.83
			c0-0.28-0.03-0.67-0.1-0.96c-0.34-1.45-1.57-2.63-3.28-2.63c-2.35,0-3.74,2.07-3.74,4.83c0,2.53,1.24,4.62,3.69,4.62
			c1.52,0,2.92-1.01,3.33-2.71c0.08-0.31,0.1-0.62,0.1-0.98V510.83z"/>
		<path class="st2" d="M311.22,514.83c0,1.29,0.03,2.43,0.1,3.41h-2.01l-0.13-2.04h-0.05c-0.59,1.01-1.91,2.32-4.13,2.32
			c-1.96,0-4.31-1.08-4.31-5.47v-7.31h2.27v6.92c0,2.38,0.72,3.98,2.79,3.98c1.52,0,2.58-1.06,2.99-2.07
			c0.13-0.34,0.21-0.75,0.21-1.16v-7.67h2.27V514.83z"/>
		<path class="st2" d="M325.91,517.77c-0.59,0.31-1.91,0.72-3.59,0.72c-3.77,0-6.22-2.56-6.22-6.38c0-3.85,2.63-6.63,6.71-6.63
			c1.34,0,2.53,0.34,3.15,0.65l-0.52,1.76c-0.54-0.31-1.39-0.59-2.63-0.59c-2.87,0-4.42,2.12-4.42,4.72c0,2.89,1.86,4.67,4.34,4.67
			c1.29,0,2.14-0.34,2.79-0.62L325.91,517.77z"/>
		<path class="st2" d="M337.51,518.24l-0.18-1.58h-0.08c-0.7,0.98-2.04,1.86-3.82,1.86c-2.53,0-3.82-1.78-3.82-3.59
			c0-3.02,2.69-4.67,7.51-4.65v-0.26c0-1.03-0.28-2.89-2.84-2.89c-1.16,0-2.38,0.36-3.25,0.93l-0.52-1.5
			c1.03-0.67,2.53-1.11,4.1-1.11c3.82,0,4.75,2.61,4.75,5.11v4.67c0,1.08,0.05,2.14,0.21,3H337.51z M337.17,511.86
			c-2.48-0.05-5.29,0.39-5.29,2.81c0,1.47,0.98,2.17,2.14,2.17c1.63,0,2.66-1.03,3.02-2.09c0.08-0.23,0.13-0.49,0.13-0.72V511.86z"
			/>
		<path class="st2" d="M347.78,502.15v3.59h3.25v1.73h-3.25v6.74c0,1.55,0.44,2.43,1.7,2.43c0.59,0,1.03-0.08,1.32-0.16l0.1,1.7
			c-0.44,0.18-1.14,0.31-2.01,0.31c-1.06,0-1.91-0.33-2.45-0.96c-0.65-0.67-0.88-1.78-0.88-3.25v-6.82h-1.94v-1.73h1.94v-3
			L347.78,502.15z"/>
		<path class="st2" d="M358.13,502.23c0.03,0.77-0.54,1.39-1.45,1.39c-0.8,0-1.37-0.62-1.37-1.39c0-0.8,0.59-1.42,1.42-1.42
			C357.59,500.81,358.13,501.43,358.13,502.23z M355.6,518.24v-12.5h2.27v12.5H355.6z"/>
		<path class="st2" d="M374.97,511.89c0,4.62-3.2,6.64-6.22,6.64c-3.38,0-5.99-2.48-5.99-6.43c0-4.18,2.74-6.64,6.2-6.64
			C372.54,505.46,374.97,508.07,374.97,511.89z M365.05,512.02c0,2.74,1.58,4.8,3.8,4.8c2.17,0,3.79-2.04,3.79-4.85
			c0-2.12-1.06-4.8-3.74-4.8C366.22,507.16,365.05,509.64,365.05,512.02z"/>
		<path class="st2" d="M379.85,509.13c0-1.29-0.03-2.35-0.1-3.38h2.01l0.13,2.07h0.05c0.62-1.19,2.07-2.35,4.13-2.35
			c1.73,0,4.42,1.03,4.42,5.32v7.46h-2.27v-7.2c0-2.01-0.75-3.69-2.89-3.69c-1.5,0-2.66,1.06-3.05,2.32
			c-0.1,0.28-0.15,0.67-0.15,1.06v7.51h-2.27V509.13z"/>
		<path class="st2" d="M403.68,509.82c0-1.6-0.05-2.89-0.1-4.08h2.04l0.1,2.14h0.05c0.93-1.52,2.4-2.43,4.44-2.43
			c3.02,0,5.29,2.56,5.29,6.35c0,4.49-2.74,6.71-5.68,6.71c-1.65,0-3.1-0.72-3.85-1.96h-0.05v6.79h-2.25V509.82z M405.92,513.15
			c0,0.33,0.05,0.65,0.1,0.93c0.41,1.57,1.78,2.66,3.41,2.66c2.4,0,3.79-1.96,3.79-4.83c0-2.5-1.32-4.65-3.72-4.65
			c-1.55,0-3,1.11-3.43,2.81c-0.08,0.28-0.16,0.62-0.16,0.93V513.15z"/>
		<path class="st2" d="M420.38,499.91h2.27v18.33h-2.27V499.91z"/>
		<path class="st2" d="M435.41,518.24l-0.18-1.58h-0.08c-0.7,0.98-2.04,1.86-3.82,1.86c-2.53,0-3.82-1.78-3.82-3.59
			c0-3.02,2.69-4.67,7.51-4.65v-0.26c0-1.03-0.28-2.89-2.84-2.89c-1.16,0-2.38,0.36-3.25,0.93l-0.52-1.5
			c1.03-0.67,2.53-1.11,4.1-1.11c3.82,0,4.75,2.61,4.75,5.11v4.67c0,1.08,0.05,2.14,0.21,3H435.41z M435.07,511.86
			c-2.48-0.05-5.29,0.39-5.29,2.81c0,1.47,0.98,2.17,2.14,2.17c1.63,0,2.66-1.03,3.02-2.09c0.08-0.23,0.13-0.49,0.13-0.72V511.86z"
			/>
		<path class="st2" d="M445.68,502.15v3.59h3.25v1.73h-3.25v6.74c0,1.55,0.44,2.43,1.7,2.43c0.59,0,1.03-0.08,1.32-0.16l0.1,1.7
			c-0.44,0.18-1.14,0.31-2.01,0.31c-1.06,0-1.91-0.33-2.45-0.96c-0.65-0.67-0.88-1.78-0.88-3.25v-6.82h-1.94v-1.73h1.94v-3
			L445.68,502.15z"/>
		<path class="st2" d="M453.74,518.24v-10.77h-1.76v-1.73h1.76v-0.59c0-1.76,0.39-3.36,1.45-4.36c0.85-0.83,1.99-1.16,3.05-1.16
			c0.8,0,1.5,0.18,1.94,0.36l-0.31,1.75c-0.34-0.15-0.8-0.28-1.45-0.28c-1.94,0-2.43,1.7-2.43,3.61v0.67H459v1.73h-3.02v10.77
			H453.74z"/>
		<path class="st2" d="M474.37,511.89c0,4.62-3.2,6.64-6.22,6.64c-3.38,0-5.99-2.48-5.99-6.43c0-4.18,2.74-6.64,6.2-6.64
			C471.94,505.46,474.37,508.07,474.37,511.89z M464.45,512.02c0,2.74,1.57,4.8,3.79,4.8c2.17,0,3.79-2.04,3.79-4.85
			c0-2.12-1.06-4.8-3.74-4.8C465.61,507.16,464.45,509.64,464.45,512.02z"/>
		<path class="st2" d="M479.25,509.64c0-1.47-0.03-2.74-0.1-3.9h1.99l0.08,2.45h0.1c0.57-1.68,1.94-2.74,3.46-2.74
			c0.26,0,0.44,0.03,0.65,0.08v2.14c-0.23-0.05-0.46-0.08-0.78-0.08c-1.6,0-2.74,1.21-3.05,2.92c-0.05,0.31-0.1,0.67-0.1,1.06v6.66
			h-2.25V509.64z"/>
		<path class="st2" d="M489.7,509.13c0-1.29-0.03-2.35-0.1-3.38h1.99l0.1,2.01h0.08c0.7-1.19,1.86-2.3,3.92-2.3
			c1.7,0,3,1.03,3.54,2.5h0.05c0.39-0.7,0.88-1.24,1.39-1.63c0.75-0.57,1.58-0.88,2.76-0.88c1.65,0,4.1,1.08,4.1,5.42v7.36h-2.22
			v-7.07c0-2.4-0.88-3.85-2.71-3.85c-1.29,0-2.3,0.96-2.69,2.07c-0.1,0.31-0.18,0.72-0.18,1.14v7.72h-2.22v-7.49
			c0-1.99-0.88-3.43-2.61-3.43c-1.42,0-2.45,1.14-2.81,2.27c-0.13,0.34-0.18,0.72-0.18,1.11v7.54h-2.22V509.13z"/>
	</g>
	<g>
		<path class="st3" d="M391.88,380.44c0,0-10.75-0.93-21.47,13.14c-0.57,0.75-1.03,1.57-1.39,2.44c-2.12,5.02-9.7,22.98-9.75,23.09
			c-0.84,1.91,0.47,3.59,2.06,3.32c0.93-0.16,4.71-2.36,5.79-2.82c4.9-2.09,9-2.08,14.16-2.53c5.14-0.44,10.27,0.12,15.41,0.14
			c7.24,0.03,14.48,0.05,21.73,0.08l0,0c4.53,0.02,8.64-2.65,10.48-6.8l6.32-14.3c3.35-7.58-2.24-16.09-10.53-16.03
			C406.65,380.3,391.88,380.44,391.88,380.44z"/>
		<path class="st3" d="M507.89,464.47c-4.95-5.79-13.47-10.28-21.3-29.07c-3.53-8.48-18.28-41.96-33.39-76.15l-55.22,0l40.38,93.28
			c0,0,4.75,14.12,17.68,17.61l47.99,0C504.03,470.14,512.85,470.26,507.89,464.47z"/>
		<path class="st3" d="M412.83,265.97c0,0-4.75-14.12-17.68-17.61l-47.99,0c0,0-8.82-0.12-3.86,5.67
			c4.95,5.79,13.47,10.28,21.3,29.07c3.53,8.48,18.28,41.96,33.39,76.15h55.22L412.83,265.97z"/>
		<path class="st4" d="M265.3,464.47c4.95-5.79,13.47-10.28,21.3-29.07c3.53-8.48,51.96-119.78,67.07-153.97l27.91,63.4
			l-46.75,107.7c0,0-4.75,14.12-17.68,17.61l-47.99,0C269.16,470.14,260.35,470.26,265.3,464.47z"/>
	</g>
	<g>
		<g>
			<path class="st4" d="M493.54,311.64c1.38-2.52,2.28-5.3,3.23-8.23c0.99-3.05,2.01-6.2,3.63-9.11c2.14-3.82,5.28-6.99,8.95-9.19
				v-23.98c0-3.03-2.36-5.48-5.27-5.48h-21.07c-2.91,0-5.27,2.46-5.27,5.48v28.56h-27.44c-2.91,0-5.27,2.46-5.27,5.48v21.94
				c0,3.03,2.36,5.48,5.27,5.48h27.22C484.11,321.78,490.25,317.63,493.54,311.64z"/>
			<path class="st3" d="M536.8,289.68h-27.38c-2.33,1.75-4.33,3.98-5.77,6.57c-1.43,2.56-2.35,5.4-3.32,8.39
				c-0.97,2.98-1.97,6.07-3.53,8.92c-3.9,7.11-11.23,12.03-19.03,12.92v24.67c0,3.03,2.36,5.48,5.27,5.48h21.07
				c2.91,0,5.27-2.46,5.27-5.48v-28.56h27.44c2.91,0,5.27-2.46,5.27-5.48v-21.94C542.07,292.14,539.71,289.68,536.8,289.68z"/>
		</g>
		<path class="st4" d="M509.23,259.93c-0.52-2.45-2.62-4.29-5.14-4.29h-21.07c-2.91,0-5.27,2.46-5.27,5.48v28.56h-27.44
			c-2.91,0-5.27,2.46-5.27,5.48v21.94c0,0.69,0.13,1.35,0.35,1.95c12.33,0.04,24.63-5.99,32.25-16.13
			c3.29-4.38,5.73-9.37,8.31-14.65c2.68-5.49,5.46-11.16,9.3-16.19C499.07,267.11,503.87,262.99,509.23,259.93z"/>
	</g>
</g>
</svg>
