<svg id="Component_10_1" data-name="Component 10 – 1" xmlns="http://www.w3.org/2000/svg" width="85.332" height="91.918" viewBox="0 0 124.332 118.918">
  <g id="Group_267" data-name="Group 267" transform="translate(93.942 26.43)">
    <rect id="Rectangle_86" data-name="Rectangle 86" width="3.847" height="3.868" transform="translate(5.82 14.87) rotate(-45)" fill="#da559a" opacity="0.9"/>
    <g id="Group_265" data-name="Group 265" transform="translate(9.453 0)">
      <path id="Path_488" data-name="Path 488" d="M1263.664,271.386h2.691v9.9l2.864-2.864,2.058,2.058-4.878,4.878-2.734-2.734V271.386" transform="translate(-1263.664 -271.386)" fill="#da559a"/>
    </g>
    <g id="Group_266" data-name="Group 266" transform="translate(0 0.005)">
      <path id="Path_489" data-name="Path 489" d="M1238.911,271.4l-2.691.014.052,9.9-2.879-2.848-2.047,2.069,4.9,4.852,2.72-2.748-.059-11.238" transform="translate(-1231.347 -271.403)" fill="#da559a"/>
    </g>
  </g>
  <g id="Group_270" data-name="Group 270" transform="translate(93.942)">
    <rect id="Rectangle_87" data-name="Rectangle 87" width="3.847" height="3.868" transform="translate(11.245 2.735) rotate(135)" fill="#da559a" opacity="0.9"/>
    <g id="Group_268" data-name="Group 268" transform="translate(0 3.632)">
      <path id="Path_490" data-name="Path 490" d="M1238.959,207.414h-2.691v-9.9l-2.864,2.864-2.058-2.058,4.878-4.878,2.734,2.734v11.239" transform="translate(-1231.347 -193.442)" fill="#da559a"/>
    </g>
    <g id="Group_269" data-name="Group 269" transform="translate(9.442 3.613)">
      <path id="Path_491" data-name="Path 491" d="M1263.685,207.363l2.691-.014-.052-9.9,2.879,2.848,2.047-2.069-4.9-4.852-2.72,2.748.059,11.238" transform="translate(-1263.626 -193.376)" fill="#da559a"/>
    </g>
  </g>
  <g id="Group_275" data-name="Group 275" transform="translate(106.728 13.485)">
    <g id="Group_274" data-name="Group 274" transform="translate(0 0)">
      <g id="Group_271" data-name="Group 271" transform="translate(12.149 5.79)" opacity="0.9">
        <rect id="Rectangle_88" data-name="Rectangle 88" width="3.868" height="3.847" transform="translate(0 2.735) rotate(-45)" fill="#0074b8"/>
      </g>
      <g id="Group_272" data-name="Group 272">
        <path id="Path_492" data-name="Path 492" d="M1275.059,234.74v-2.691h9.9l-2.864-2.864,2.058-2.058,4.878,4.878-2.734,2.734h-11.238" transform="translate(-1275.059 -227.128)" fill="#0074b8"/>
      </g>
      <g id="Group_273" data-name="Group 273" transform="translate(0.005 9.442)">
        <path id="Path_493" data-name="Path 493" d="M1275.075,259.466l.014,2.691,9.9-.052-2.849,2.879,2.069,2.047,4.853-4.9-2.749-2.72-11.238.059" transform="translate(-1275.075 -259.406)" fill="#0074b8"/>
      </g>
    </g>
  </g>
  <g id="Group_280" data-name="Group 280" transform="translate(80.617 13.485)">
    <g id="Group_279" data-name="Group 279" transform="translate(0 0)">
      <g id="Group_276" data-name="Group 276" transform="translate(0 5.82)" opacity="0.9">
        <rect id="Rectangle_89" data-name="Rectangle 89" width="3.868" height="3.847" transform="translate(0 2.735) rotate(-45)" fill="#0074b8"/>
      </g>
      <g id="Group_277" data-name="Group 277" transform="translate(3.632 9.453)">
        <path id="Path_494" data-name="Path 494" d="M1212.18,259.445v2.691h-9.9l2.864,2.864-2.058,2.058-4.878-4.878,2.734-2.734h11.239" transform="translate(-1198.208 -259.445)" fill="#0074b8"/>
      </g>
      <g id="Group_278" data-name="Group 278" transform="translate(3.613)">
        <path id="Path_495" data-name="Path 495" d="M1212.129,234.692l-.014-2.691-9.9.052,2.849-2.879-2.069-2.047-4.852,4.9,2.748,2.72,11.238-.059" transform="translate(-1198.142 -227.128)" fill="#0074b8"/>
      </g>
    </g>
  </g>
  <path id="Path_496" data-name="Path 496" d="M1065.822,451.98s-4.921-.424-9.693,6.205c0,0-4.445,10.53-4.47,10.587-.366.827.2,1.558.892,1.441.4-.068,2.045-1.026,2.514-1.227,2.126-.909,3.909-.9,6.151-1.1s4.462.051,6.694.059l9.436.033,3.24.012,7.159-16.191C1076.924,451.878,1065.822,451.98,1065.822,451.98Z" transform="translate(-1010.194 -372.602)" fill="#da559a"/>
  <path id="Union_1" data-name="Union 1" d="M70.461,96.317H49.62c-5.614-1.514-7.679-7.646-7.679-7.646L24.406,48.159C17.842,33.312,11.439,18.77,9.9,15.087c-3.4-8.16-7.1-10.11-9.248-12.624S2.333,0,2.333,0H23.175c5.613,1.514,7.678,7.646,7.678,7.646L48.389,48.159c6.563,14.847,12.967,29.389,14.5,33.072,3.4,8.159,7.1,10.109,9.248,12.623,2.066,2.416-1.386,2.463-1.66,2.463Z" transform="translate(33.875 22.1)" fill="#da559a" stroke="rgba(0,0,0,0)" stroke-miterlimit="10" stroke-width="1"/>
  <path id="Path_499" data-name="Path 499" d="M910.831,384.894c2.151-2.514,5.85-4.464,9.249-12.623,1.534-3.683,22.566-52.021,29.13-66.868l12.121,27.536-20.3,46.772s-2.065,6.132-7.678,7.646H912.509S908.68,387.408,910.831,384.894Z" transform="translate(-910.175 -269.022)" fill="#0074b8"/>
</svg>
