<svg xmlns="http://www.w3.org/2000/svg" width="89.302" height="82.224" viewBox="0 0 159.302 152.224">
  <g id="Group_310" data-name="Group 310" transform="translate(-1625.705 -51.574)">
    <g id="Group_267" data-name="Group 267" transform="translate(1746.069 85.438)">
      <rect id="Rectangle_86" data-name="Rectangle 86" width="4.93" height="4.956" transform="translate(7.457 19.052) rotate(-45)" fill="#fff" opacity="0.9"/>
      <g id="Group_265" data-name="Group 265" transform="translate(12.111 0)">
        <path id="Path_488" data-name="Path 488" d="M1263.664,271.385h3.448V284.07l3.669-3.669,2.636,2.637-6.25,6.25-3.5-3.5v-14.4" transform="translate(-1263.664 -271.385)" fill="#fff"/>
      </g>
      <g id="Group_266" data-name="Group 266" transform="translate(0 0.006)">
        <path id="Path_489" data-name="Path 489" d="M1241.039,271.4l-3.448.018.067,12.685-3.688-3.65-2.623,2.65,6.283,6.217,3.485-3.521-.076-14.4" transform="translate(-1231.347 -271.403)" fill="#fff"/>
      </g>
    </g>
    <g id="Group_270" data-name="Group 270" transform="translate(1746.069 51.573)">
      <rect id="Rectangle_87" data-name="Rectangle 87" width="4.93" height="4.956" transform="translate(14.408 3.504) rotate(135)" fill="#fff" opacity="0.9"/>
      <g id="Group_268" data-name="Group 268" transform="translate(0 4.653)">
        <path id="Path_490" data-name="Path 490" d="M1241.1,211.344h-3.448V198.659l-3.669,3.669-2.636-2.637,6.25-6.25,3.5,3.5v14.4" transform="translate(-1231.347 -193.442)" fill="#fff"/>
      </g>
      <g id="Group_269" data-name="Group 269" transform="translate(12.097 4.629)">
        <path id="Path_491" data-name="Path 491" d="M1263.7,211.3l3.447-.018-.066-12.685,3.688,3.65,2.623-2.65-6.283-6.217-3.485,3.521.076,14.4" transform="translate(-1263.626 -193.376)" fill="#fff"/>
      </g>
    </g>
    <g id="Group_275" data-name="Group 275" transform="translate(1762.45 68.851)">
      <g id="Group_274" data-name="Group 274" transform="translate(0 0)">
        <g id="Group_271" data-name="Group 271" transform="translate(15.566 7.418)" opacity="0.9">
          <rect id="Rectangle_88" data-name="Rectangle 88" width="4.956" height="4.93" transform="translate(0 3.504) rotate(-45)" fill="#fff"/>
        </g>
        <g id="Group_272" data-name="Group 272">
          <path id="Path_492" data-name="Path 492" d="M1275.059,236.881v-3.448h12.684l-3.669-3.669,2.636-2.637,6.25,6.25-3.5,3.5h-14.4" transform="translate(-1275.059 -227.127)" fill="#fff"/>
        </g>
        <g id="Group_273" data-name="Group 273" transform="translate(0.006 12.097)">
          <path id="Path_493" data-name="Path 493" d="M1275.075,259.482l.018,3.448,12.685-.067-3.65,3.688,2.65,2.623,6.218-6.283-3.522-3.485-14.4.076" transform="translate(-1275.075 -259.406)" fill="#fff"/>
        </g>
      </g>
    </g>
    <g id="Group_280" data-name="Group 280" transform="translate(1728.996 68.851)">
      <g id="Group_279" data-name="Group 279" transform="translate(0 0)">
        <g id="Group_276" data-name="Group 276" transform="translate(0 7.457)" opacity="0.9">
          <rect id="Rectangle_89" data-name="Rectangle 89" width="4.956" height="4.93" transform="translate(0 3.504) rotate(-45)" fill="#fff"/>
        </g>
        <g id="Group_277" data-name="Group 277" transform="translate(4.653 12.111)">
          <path id="Path_494" data-name="Path 494" d="M1216.11,259.445v3.448h-12.685l3.669,3.669-2.636,2.637-6.25-6.25,3.5-3.5h14.4" transform="translate(-1198.208 -259.445)" fill="#fff"/>
        </g>
        <g id="Group_278" data-name="Group 278" transform="translate(4.629)">
          <path id="Path_495" data-name="Path 495" d="M1216.063,236.819l-.018-3.448-12.685.067,3.65-3.688-2.65-2.623-6.217,6.283,3.521,3.485,14.4-.076" transform="translate(-1198.142 -227.127)" fill="#fff"/>
        </g>
      </g>
    </g>
    <path id="Path_496" data-name="Path 496" d="M1069.837,452.03s-6.305-.543-12.419,7.951c0,0-5.695,13.492-5.727,13.565-.469,1.06.259,2,1.144,1.846.516-.088,2.621-1.315,3.221-1.572,2.724-1.164,5.008-1.159,7.881-1.4s5.716.065,8.576.076l12.089.043,4.151.015,9.173-20.745C1084.062,451.9,1069.837,452.03,1069.837,452.03Z" transform="translate(627.141 -298.752)" fill="#fff"/>
    <path id="Union_1" data-name="Union 1" d="M90.279,123.407h-26.7c-7.193-1.939-9.838-9.8-9.838-9.8L31.27,61.7C22.86,42.681,14.656,24.049,12.69,19.33,8.335,8.876,3.6,6.377.84,3.156S2.99,0,2.99,0h26.7c7.192,1.939,9.837,9.8,9.837,9.8L62,61.7c8.409,19.023,16.614,37.655,18.579,42.374,4.354,10.454,9.094,12.952,11.849,16.174,2.648,3.095-1.775,3.156-2.127,3.156Z" transform="translate(1669.107 79.89)" fill="#fff" stroke="rgba(0,0,0,0)" stroke-miterlimit="10" stroke-width="1"/>
    <path id="Path_499" data-name="Path 499" d="M911.015,407.251c2.756-3.221,7.5-5.72,11.85-16.174,1.966-4.719,28.913-66.653,37.323-85.676l15.53,35.281-26.012,59.928s-2.645,7.857-9.838,9.8h-26.7S908.26,410.473,911.015,407.251Z" transform="translate(715.53 -207.216)" fill="#fff"/>
  </g>
</svg>
