<svg xmlns="http://www.w3.org/2000/svg" width="31.229" height="31.229" viewBox="0 0 31.229 31.229">
  <g id="instagram_3_" data-name="instagram (3)" transform="translate(0.001)">
    <path id="Path_538" data-name="Path 538" d="M22.774,0H8.452A8.463,8.463,0,0,0,0,8.453V22.775a8.463,8.463,0,0,0,8.453,8.453H22.774a8.463,8.463,0,0,0,8.453-8.453V8.453A8.463,8.463,0,0,0,22.774,0ZM29.4,22.775A6.63,6.63,0,0,1,22.774,29.4H8.452A6.63,6.63,0,0,1,1.83,22.775V8.453A6.63,6.63,0,0,1,8.452,1.831H22.774A6.63,6.63,0,0,1,29.4,8.453Zm0,0" fill="#002347"/>
    <path id="Path_539" data-name="Path 539" d="M124.543,116a8.539,8.539,0,1,0,8.539,8.539A8.548,8.548,0,0,0,124.543,116Zm0,15.247a6.708,6.708,0,1,1,6.708-6.708A6.716,6.716,0,0,1,124.543,131.251Zm0,0" transform="translate(-108.929 -108.929)" fill="#002347"/>
    <path id="Path_540" data-name="Path 540" d="M360.5,66.285a2.523,2.523,0,1,0,2.523,2.523A2.526,2.526,0,0,0,360.5,66.285Zm0,3.215a.692.692,0,1,1,.693-.692A.693.693,0,0,1,360.5,69.5Zm0,0" transform="translate(-336.144 -62.242)" fill="#002347"/>
  </g>
</svg>
