<svg xmlns="http://www.w3.org/2000/svg" width="32.055" height="32.209" viewBox="0 0 32.055 32.209">
  <path id="whatsapp_3_" data-name="whatsapp (3)" d="M27.635,4.681A15.964,15.964,0,0,0,2.514,23.939L.25,32.209l8.461-2.22a15.944,15.944,0,0,0,7.627,1.943h.007A15.967,15.967,0,0,0,27.635,4.681ZM16.345,29.237h-.006a13.249,13.249,0,0,1-6.752-1.849L9.1,27.1,4.082,28.418l1.34-4.9-.316-.5a13.266,13.266,0,1,1,11.238,6.217ZM23.621,19.3c-.4-.2-2.359-1.164-2.725-1.3s-.631-.2-.9.2-1.03,1.3-1.263,1.563-.465.3-.864.1a10.893,10.893,0,0,1-3.207-1.979,12.03,12.03,0,0,1-2.219-2.762c-.232-.4,0-.594.175-.814a11.281,11.281,0,0,0,1-1.364.733.733,0,0,0-.033-.7c-.1-.2-.9-2.162-1.229-2.961-.324-.777-.652-.672-.9-.685s-.5-.014-.764-.014a1.465,1.465,0,0,0-1.064.5,4.473,4.473,0,0,0-1.4,3.327A7.758,7.758,0,0,0,9.863,16.54c.2.266,2.812,4.294,6.813,6.022a22.828,22.828,0,0,0,2.274.84,5.467,5.467,0,0,0,2.512.158,4.108,4.108,0,0,0,2.692-1.9,3.332,3.332,0,0,0,.232-1.9c-.1-.166-.365-.266-.764-.466Zm0,0" transform="translate(-0.25)" fill="#002347" fill-rule="evenodd"/>
</svg>
