<svg xmlns="http://www.w3.org/2000/svg" width="31.495" height="22.052" viewBox="0 0 31.495 22.052">
  <path id="youtube" d="M30.847-2.631a3.946,3.946,0,0,0-2.776-2.776c-2.465-.674-12.323-.674-12.323-.674s-9.858,0-12.323.649a4.026,4.026,0,0,0-2.776,2.8A41.576,41.576,0,0,0,0,4.944a41.423,41.423,0,0,0,.649,7.575A3.946,3.946,0,0,0,3.425,15.3c2.49.675,12.323.675,12.323.675s9.858,0,12.323-.649a3.946,3.946,0,0,0,2.776-2.776A41.589,41.589,0,0,0,31.5,4.97a39.466,39.466,0,0,0-.649-7.6ZM12.609,9.665V.222l8.2,4.722Zm0,0" transform="translate(-0.001 6.082)" fill="#002347"/>
</svg>
